{"title":"The Littlest Light on the Christmas Tree (2004) DVDRip","uid":9375655,"size":412296337,"categoryP":"video","categoryS":"movies","magnet":"?xt=urn:btih:3ddbaa56b99204ca456b8867fcabd61c337d04eb&amp;dn=The+Littlest+Light+on+the+Christmas+Tree+%282004%29+DVDRip&amp;tr=udp%3A%2F%2Ftracker.openbittorrent.com%3A80&amp;tr=udp%3A%2F%2Fopen.demonii.com%3A1337&amp;tr=udp%3A%2F%2Ftracker.coppersurfer.tk%3A6969&amp;tr=udp%3A%2F%2Fexodus.desync.com%3A6969","seeders":1,"leechers":0,"uploader":"7","files":-1,"time":1387617911,"description":" &lt;a href=&quot;https://forum.suprbay.org/Thread-%E2%98%AE%E2%99%8B%E2%99%82%E2%98%A0%E2%98%BA-Torrents-%E2%98%80%E2%98%81%E2%98%82%E2%98%AF%E2%9C%82?pid=13767#pid13767&quot; rel=&quot;nofollow&quot; target=&quot;_NEW&quot;&gt;https://forum.suprbay.org/Thread-%E2%98%AE%E2%99%8B%E2%99%82%E2%98%A0%E2%98%BA-Torrents-%E2%98%80%E2%98%81%E2%98%82%E2%98%AF%E2%9C%82?pid=13767#pid13767&lt;/a&gt;\n\nReleased\t2004\nGenre\t, Short, Family\nActors\tJames Noughton, Jane Seymour\nPlot\tNot found at IMDB.com\nIMDB link\t\n &lt;a href=&quot;\nhttp://www.imdb.com/title/tt3096768/&quot; rel=&quot;nofollow&quot; target=&quot;_NEW&quot;&gt;\nhttp://www.imdb.com/title/tt3096768/&lt;/a&gt;\n\nGeneral\nComplete name                            : The Littlest Light on the Christmas Tree (2004).avi\nFormat                                   : AVI\nFormat/Info                              : Audio Video Interleave\nFile size                                : 393 MiB\nDuration                                 : 44mn 5s\nOverall bit rate                         : 1 247 Kbps\nWriting application                      : Lavf51.12.1\n\nVideo\nID                                       : 0\nFormat                                   : MPEG-4 Visual\nFormat profile                           : Simple@L1\nFormat settings, BVOP                    : No\nFormat settings, QPel                    : No\nFormat settings, GMC                     : No warppoints\nFormat settings, Matrix                  : Default (H.263)\nCodec ID                                 : DX50\nCodec ID/Hint                            : DivX 5\nDuration                                 : 44mn 5s\nBit rate                                 : 1 105 Kbps\nWidth                                    : 592 pixels\nHeight                                   : 448 pixels\nDisplay aspect ratio                     : 4:3\nFrame rate                               : 29.970 fps\nColor space                              : YUV\nChroma subsampling                       : 4:2:0\nBit depth                                : 8 bits\nScan type                                : Progressive\nCompression mode                         : Lossy\nBits/(Pixel*Frame)                       : 0.139\nStream size                              : 348 MiB (89%)\nWriting library                          : Lavc51.40.4\n\nAudio\nID                                       : 1\nFormat                                   : MPEG Audio\nFormat version                           : Version 1\nFormat profile                           : Layer 3\nMode                                     : Joint stereo\nMode extension                           : MS Stereo\nCodec ID                                 : 55\nCodec ID/Hint                            : MP3\nDuration                                 : 44mn 5s\nBit rate mode                            : Constant\nBit rate                                 : 128 Kbps\nChannel(s)                               : 2 channels\nSampling rate                            : 48.0 KHz\nCompression mode                         : Lossy\nStream size                              : 40.4 MiB (10%)\nAlignment                                : Aligned on interleaves\nInterleave, duration                     : 24 ms (0.72 video frame)\nInterleave, preload duration             : 24 ms\n &lt;a href=&quot;\nhttp://lookpic.com/O/i2/871/zzeOezrn.jpeg&quot; rel=&quot;nofollow&quot; target=&quot;_NEW&quot;&gt;\nhttp://lookpic.com/O/i2/871/zzeOezrn.jpeg&lt;/a&gt;","torrent":{"xt":"urn:btih:3ddbaa56b99204ca456b8867fcabd61c337d04eb","amp;dn":"The+Littlest+Light+on+the+Christmas+Tree+%282004%29+DVDRip","amp;tr":["udp%3A%2F%2Ftracker.openbittorrent.com%3A80","udp%3A%2F%2Fopen.demonii.com%3A1337","udp%3A%2F%2Ftracker.coppersurfer.tk%3A6969","udp%3A%2F%2Fexodus.desync.com%3A6969"],"infoHash":"3ddbaa56b99204ca456b8867fcabd61c337d04eb","infoHashBuffer":{"type":"Buffer","data":[61,219,170,86,185,146,4,202,69,107,136,103,252,171,214,28,51,125,4,235]},"announce":[],"urlList":[]}}